<mxfile host="app.diagrams.net" modified="2023-04-12T07:22:27.139Z" agent="5.0 (Windows NT 10.0; Win64; x64) AppleWebKit/537.36 (KHTML, like Gecko) Chrome/111.0.0.0 Safari/537.36" etag="nmidl3_EjMrvAQkTrD55" version="21.0.6" type="github">
  <diagram id="R2lEEEUBdFMjLlhIrx00" name="Page-1">
    <mxGraphModel dx="1323" dy="717" grid="1" gridSize="10" guides="1" tooltips="1" connect="1" arrows="1" fold="1" page="1" pageScale="1" pageWidth="850" pageHeight="1100" math="0" shadow="0" extFonts="Permanent Marker^https://fonts.googleapis.com/css?family=Permanent+Marker">
      <root>
        <mxCell id="0" />
        <mxCell id="1" parent="0" />
        <mxCell id="mnZ3_GYvDzU8T9f_I2Pp-1" value="" style="rounded=0;whiteSpace=wrap;html=1;direction=south;fontFamily=Helvetica;" vertex="1" parent="1">
          <mxGeometry x="45" y="180" width="760" height="720" as="geometry" />
        </mxCell>
        <mxCell id="mnZ3_GYvDzU8T9f_I2Pp-2" value="" style="ellipse;whiteSpace=wrap;html=1;" vertex="1" parent="1">
          <mxGeometry x="380" y="270" width="120" height="80" as="geometry" />
        </mxCell>
        <mxCell id="mnZ3_GYvDzU8T9f_I2Pp-3" value="" style="ellipse;whiteSpace=wrap;html=1;" vertex="1" parent="1">
          <mxGeometry x="380" y="460" width="120" height="80" as="geometry" />
        </mxCell>
        <mxCell id="mnZ3_GYvDzU8T9f_I2Pp-4" value="" style="ellipse;whiteSpace=wrap;html=1;" vertex="1" parent="1">
          <mxGeometry x="380" y="360" width="120" height="80" as="geometry" />
        </mxCell>
        <mxCell id="mnZ3_GYvDzU8T9f_I2Pp-5" value="" style="ellipse;whiteSpace=wrap;html=1;" vertex="1" parent="1">
          <mxGeometry x="375" y="570" width="120" height="80" as="geometry" />
        </mxCell>
        <mxCell id="mnZ3_GYvDzU8T9f_I2Pp-6" value="" style="ellipse;whiteSpace=wrap;html=1;" vertex="1" parent="1">
          <mxGeometry x="375" y="670" width="120" height="80" as="geometry" />
        </mxCell>
        <mxCell id="mnZ3_GYvDzU8T9f_I2Pp-7" value="" style="ellipse;whiteSpace=wrap;html=1;" vertex="1" parent="1">
          <mxGeometry x="375" y="770" width="120" height="80" as="geometry" />
        </mxCell>
        <mxCell id="mnZ3_GYvDzU8T9f_I2Pp-16" style="edgeStyle=orthogonalEdgeStyle;rounded=0;orthogonalLoop=1;jettySize=auto;html=1;exitX=1;exitY=0.3333333333333333;exitDx=0;exitDy=0;exitPerimeter=0;entryX=0;entryY=0.5;entryDx=0;entryDy=0;" edge="1" parent="1" source="mnZ3_GYvDzU8T9f_I2Pp-9" target="mnZ3_GYvDzU8T9f_I2Pp-2">
          <mxGeometry relative="1" as="geometry">
            <Array as="points">
              <mxPoint x="200" y="400" />
              <mxPoint x="200" y="310" />
            </Array>
          </mxGeometry>
        </mxCell>
        <mxCell id="mnZ3_GYvDzU8T9f_I2Pp-17" style="edgeStyle=orthogonalEdgeStyle;rounded=0;orthogonalLoop=1;jettySize=auto;html=1;exitX=1;exitY=0.3333333333333333;exitDx=0;exitDy=0;exitPerimeter=0;entryX=0;entryY=0.5;entryDx=0;entryDy=0;" edge="1" parent="1" source="mnZ3_GYvDzU8T9f_I2Pp-9" target="mnZ3_GYvDzU8T9f_I2Pp-4">
          <mxGeometry relative="1" as="geometry">
            <Array as="points">
              <mxPoint x="170" y="400" />
            </Array>
          </mxGeometry>
        </mxCell>
        <mxCell id="mnZ3_GYvDzU8T9f_I2Pp-18" style="edgeStyle=orthogonalEdgeStyle;rounded=0;orthogonalLoop=1;jettySize=auto;html=1;exitX=1;exitY=0.3333333333333333;exitDx=0;exitDy=0;exitPerimeter=0;entryX=0;entryY=0.5;entryDx=0;entryDy=0;" edge="1" parent="1" source="mnZ3_GYvDzU8T9f_I2Pp-9" target="mnZ3_GYvDzU8T9f_I2Pp-3">
          <mxGeometry relative="1" as="geometry">
            <Array as="points">
              <mxPoint x="200" y="400" />
              <mxPoint x="200" y="500" />
            </Array>
          </mxGeometry>
        </mxCell>
        <mxCell id="mnZ3_GYvDzU8T9f_I2Pp-9" value="Actor" style="shape=umlActor;verticalLabelPosition=bottom;verticalAlign=top;html=1;outlineConnect=0;" vertex="1" parent="1">
          <mxGeometry x="120" y="370" width="50" height="90" as="geometry" />
        </mxCell>
        <mxCell id="mnZ3_GYvDzU8T9f_I2Pp-19" style="edgeStyle=orthogonalEdgeStyle;rounded=0;orthogonalLoop=1;jettySize=auto;html=1;exitX=1;exitY=0.3333333333333333;exitDx=0;exitDy=0;exitPerimeter=0;entryX=0;entryY=0.5;entryDx=0;entryDy=0;" edge="1" parent="1" source="mnZ3_GYvDzU8T9f_I2Pp-11" target="mnZ3_GYvDzU8T9f_I2Pp-5">
          <mxGeometry relative="1" as="geometry">
            <Array as="points">
              <mxPoint x="230" y="710" />
              <mxPoint x="230" y="610" />
            </Array>
          </mxGeometry>
        </mxCell>
        <mxCell id="mnZ3_GYvDzU8T9f_I2Pp-20" style="edgeStyle=orthogonalEdgeStyle;rounded=0;orthogonalLoop=1;jettySize=auto;html=1;exitX=1;exitY=0.3333333333333333;exitDx=0;exitDy=0;exitPerimeter=0;entryX=0;entryY=0.5;entryDx=0;entryDy=0;" edge="1" parent="1" source="mnZ3_GYvDzU8T9f_I2Pp-11" target="mnZ3_GYvDzU8T9f_I2Pp-7">
          <mxGeometry relative="1" as="geometry">
            <Array as="points">
              <mxPoint x="230" y="710" />
              <mxPoint x="230" y="810" />
            </Array>
          </mxGeometry>
        </mxCell>
        <mxCell id="mnZ3_GYvDzU8T9f_I2Pp-22" style="edgeStyle=orthogonalEdgeStyle;rounded=0;orthogonalLoop=1;jettySize=auto;html=1;exitX=1;exitY=0.3333333333333333;exitDx=0;exitDy=0;exitPerimeter=0;entryX=0;entryY=0.5;entryDx=0;entryDy=0;" edge="1" parent="1" source="mnZ3_GYvDzU8T9f_I2Pp-11" target="mnZ3_GYvDzU8T9f_I2Pp-3">
          <mxGeometry relative="1" as="geometry">
            <Array as="points">
              <mxPoint x="230" y="710" />
              <mxPoint x="230" y="510" />
              <mxPoint x="380" y="510" />
            </Array>
          </mxGeometry>
        </mxCell>
        <mxCell id="mnZ3_GYvDzU8T9f_I2Pp-23" style="edgeStyle=orthogonalEdgeStyle;rounded=0;orthogonalLoop=1;jettySize=auto;html=1;exitX=1;exitY=0.3333333333333333;exitDx=0;exitDy=0;exitPerimeter=0;entryX=-0.005;entryY=0.618;entryDx=0;entryDy=0;entryPerimeter=0;" edge="1" parent="1" source="mnZ3_GYvDzU8T9f_I2Pp-11" target="mnZ3_GYvDzU8T9f_I2Pp-4">
          <mxGeometry relative="1" as="geometry">
            <Array as="points">
              <mxPoint x="230" y="710" />
              <mxPoint x="230" y="409" />
            </Array>
          </mxGeometry>
        </mxCell>
        <mxCell id="mnZ3_GYvDzU8T9f_I2Pp-11" value="Actor" style="shape=umlActor;verticalLabelPosition=bottom;verticalAlign=top;html=1;outlineConnect=0;" vertex="1" parent="1">
          <mxGeometry x="110" y="680" width="50" height="90" as="geometry" />
        </mxCell>
        <mxCell id="mnZ3_GYvDzU8T9f_I2Pp-24" style="edgeStyle=orthogonalEdgeStyle;rounded=0;orthogonalLoop=1;jettySize=auto;html=1;exitX=0;exitY=0.3333333333333333;exitDx=0;exitDy=0;exitPerimeter=0;entryX=1;entryY=0.5;entryDx=0;entryDy=0;" edge="1" parent="1" source="mnZ3_GYvDzU8T9f_I2Pp-12" target="mnZ3_GYvDzU8T9f_I2Pp-7">
          <mxGeometry relative="1" as="geometry">
            <Array as="points">
              <mxPoint x="600" y="533" />
              <mxPoint x="600" y="810" />
            </Array>
          </mxGeometry>
        </mxCell>
        <mxCell id="mnZ3_GYvDzU8T9f_I2Pp-25" style="edgeStyle=orthogonalEdgeStyle;rounded=0;orthogonalLoop=1;jettySize=auto;html=1;exitX=0;exitY=0.3333333333333333;exitDx=0;exitDy=0;exitPerimeter=0;entryX=1;entryY=0.5;entryDx=0;entryDy=0;" edge="1" parent="1" source="mnZ3_GYvDzU8T9f_I2Pp-12" target="mnZ3_GYvDzU8T9f_I2Pp-6">
          <mxGeometry relative="1" as="geometry">
            <Array as="points">
              <mxPoint x="600" y="533" />
              <mxPoint x="600" y="710" />
            </Array>
          </mxGeometry>
        </mxCell>
        <mxCell id="mnZ3_GYvDzU8T9f_I2Pp-26" style="edgeStyle=orthogonalEdgeStyle;rounded=0;orthogonalLoop=1;jettySize=auto;html=1;exitX=0;exitY=0.3333333333333333;exitDx=0;exitDy=0;exitPerimeter=0;entryX=1;entryY=0.5;entryDx=0;entryDy=0;" edge="1" parent="1" source="mnZ3_GYvDzU8T9f_I2Pp-12" target="mnZ3_GYvDzU8T9f_I2Pp-3">
          <mxGeometry relative="1" as="geometry">
            <Array as="points">
              <mxPoint x="600" y="533" />
              <mxPoint x="600" y="500" />
            </Array>
          </mxGeometry>
        </mxCell>
        <mxCell id="mnZ3_GYvDzU8T9f_I2Pp-27" style="edgeStyle=orthogonalEdgeStyle;rounded=0;orthogonalLoop=1;jettySize=auto;html=1;exitX=0;exitY=0.3333333333333333;exitDx=0;exitDy=0;exitPerimeter=0;entryX=1;entryY=0.5;entryDx=0;entryDy=0;" edge="1" parent="1" source="mnZ3_GYvDzU8T9f_I2Pp-12" target="mnZ3_GYvDzU8T9f_I2Pp-4">
          <mxGeometry relative="1" as="geometry">
            <Array as="points">
              <mxPoint x="600" y="533" />
              <mxPoint x="600" y="400" />
            </Array>
          </mxGeometry>
        </mxCell>
        <mxCell id="mnZ3_GYvDzU8T9f_I2Pp-12" value="Actor" style="shape=umlActor;verticalLabelPosition=bottom;verticalAlign=top;html=1;outlineConnect=0;" vertex="1" parent="1">
          <mxGeometry x="710" y="500" width="50" height="100" as="geometry" />
        </mxCell>
        <mxCell id="mnZ3_GYvDzU8T9f_I2Pp-28" value="Sell Them&amp;nbsp;" style="text;html=1;strokeColor=none;fillColor=none;align=center;verticalAlign=middle;whiteSpace=wrap;rounded=0;" vertex="1" parent="1">
          <mxGeometry x="401.5" y="590" width="68.5" height="40" as="geometry" />
        </mxCell>
        <mxCell id="mnZ3_GYvDzU8T9f_I2Pp-29" value="Reviewer" style="text;html=1;strokeColor=none;fillColor=none;align=center;verticalAlign=middle;whiteSpace=wrap;rounded=0;" vertex="1" parent="1">
          <mxGeometry x="115" y="485" width="60" height="30" as="geometry" />
        </mxCell>
        <mxCell id="mnZ3_GYvDzU8T9f_I2Pp-30" value="Seller" style="text;html=1;strokeColor=none;fillColor=none;align=center;verticalAlign=middle;whiteSpace=wrap;rounded=0;" vertex="1" parent="1">
          <mxGeometry x="105" y="790" width="60" height="30" as="geometry" />
        </mxCell>
        <mxCell id="mnZ3_GYvDzU8T9f_I2Pp-31" value="Buyer" style="text;html=1;strokeColor=none;fillColor=none;align=center;verticalAlign=middle;whiteSpace=wrap;rounded=0;" vertex="1" parent="1">
          <mxGeometry x="705" y="620" width="60" height="30" as="geometry" />
        </mxCell>
        <mxCell id="mnZ3_GYvDzU8T9f_I2Pp-32" value="Write Review" style="text;html=1;strokeColor=none;fillColor=none;align=center;verticalAlign=middle;whiteSpace=wrap;rounded=0;" vertex="1" parent="1">
          <mxGeometry x="405" y="290" width="75" height="40" as="geometry" />
        </mxCell>
        <mxCell id="mnZ3_GYvDzU8T9f_I2Pp-33" value="Rate Review" style="text;html=1;strokeColor=none;fillColor=none;align=center;verticalAlign=middle;whiteSpace=wrap;rounded=0;" vertex="1" parent="1">
          <mxGeometry x="405" y="380" width="75" height="40" as="geometry" />
        </mxCell>
        <mxCell id="mnZ3_GYvDzU8T9f_I2Pp-34" value="Report Review" style="text;html=1;strokeColor=none;fillColor=none;align=center;verticalAlign=middle;whiteSpace=wrap;rounded=0;" vertex="1" parent="1">
          <mxGeometry x="401.5" y="485" width="82" height="30" as="geometry" />
        </mxCell>
        <mxCell id="mnZ3_GYvDzU8T9f_I2Pp-35" value="Buy them" style="text;html=1;strokeColor=none;fillColor=none;align=center;verticalAlign=middle;whiteSpace=wrap;rounded=0;" vertex="1" parent="1">
          <mxGeometry x="401.5" y="692.5" width="65" height="35" as="geometry" />
        </mxCell>
        <mxCell id="mnZ3_GYvDzU8T9f_I2Pp-36" value="Leave Feedback" style="text;html=1;strokeColor=none;fillColor=none;align=center;verticalAlign=middle;whiteSpace=wrap;rounded=0;" vertex="1" parent="1">
          <mxGeometry x="394.75" y="795" width="78.5" height="30" as="geometry" />
        </mxCell>
      </root>
    </mxGraphModel>
  </diagram>
</mxfile>
